<svg viewBox="0 0 36 36" fill="#5865f2" width="100%" height="100%">
  <path d="M18,3c8.284,0,15,6.716,15,15s-6.716,15-15,15S3,26.284,3,18S9.716,3,18,3 M18,1C8.611,1,1,8.611,1,18s7.611,17,17,17 s17-7.611,17-17S27.389,1,18,1L18,1z"/>
  <path d="M25.45,13.4c-0.2-0.15-0.45-0.25-0.7-0.3c-0.61-0.09-1.24,0.05-1.75,0.4c-0.54,0.36-0.9,0.94-0.98,1.61 c-0.04,0.33,0,0.66,0.12,0.96c-0.8-0.22-1.56-0.61-2.19-1.15c-0.83-0.72-1.92-1.2-3.08-1.35c-0.67-0.09-1.36-0.06-2.02,0.08 c-1.35,0.28-2.55,1.06-3.4,2.16c-0.33,0.42-0.61,0.89-0.84,1.4c-0.36,0.8-0.54,1.69-0.51,2.59c0.07,1.95,1.03,3.71,2.58,4.78 c0.48,0.33,1,0.57,1.55,0.73c-0.14,0.1-0.27,0.21-0.39,0.34c-0.36,0.36-0.6,0.84-0.66,1.38c-0.01,0.09-0.01,0.17-0.01,0.26 c0.03,0.68,0.38,1.29,0.92,1.65c0.43,0.29,0.93,0.43,1.44,0.41c0.72-0.03,1.42-0.39,1.84-0.98c0.35-0.48,0.5-1.03,0.49-1.58 c-0.01-0.84-0.46-1.59-1.16-1.99l-0.01,0c0.47-0.04,0.94-0.12,1.39-0.24c0.21-0.06,0.42-0.13,0.62-0.22 c0.38-0.15,0.76-0.34,1.12-0.57c0.53-0.32,1-0.73,1.41-1.2c0.51-0.6,0.88-1.31,1.07-2.09c0.16-0.65,0.17-1.33,0.03-1.98 c-0.07-0.35-0.19-0.69-0.35-1.01c1.19-0.41,2.23-1.28,2.76-2.63C26.43,15.43,26.43,14.09,25.45,13.4z M23.88,15.53 c-0.05,0.48-0.23,0.91-0.54,1.26c-0.15,0.16-0.32,0.31-0.51,0.41c-0.41,0.24-0.87,0.31-1.32,0.21c-0.3-0.07-0.57-0.21-0.8-0.41 c0.18-0.05,0.35-0.12,0.51-0.21c0.44-0.23,0.8-0.62,0.97-1.14c0.09-0.26,0.1-0.54,0.06-0.81c-0.05-0.29-0.18-0.57-0.39-0.78 c0.56,0.04,1.07,0.27,1.43,0.69C23.81,14.21,23.96,14.91,23.88,15.53z M12.47,23.84c-0.01,0.04-0.02,0.07-0.03,0.11 c-0.11,0.4-0.36,0.74-0.72,0.96c-0.35,0.22-0.77,0.29-1.17,0.21c-0.44-0.08-0.82-0.35-1.05-0.75c-0.27-0.48-0.24-1.08,0.1-1.53 c0.16-0.21,0.37-0.37,0.61-0.46c0.43-0.17,0.88-0.11,1.27,0.12c0.49,0.29,0.82,0.78,0.9,1.33C12.48,23.84,12.47,23.84,12.47,23.84z M21.6,20.51c-0.52,0.77-1.23,1.36-2.04,1.69c-0.42,0.18-0.85,0.29-1.3,0.35c-0.62,0.08-1.25,0.05-1.86-0.08 c-0.36-0.08-0.72-0.2-1.05-0.35c-0.32-0.15-0.62-0.33-0.9-0.55c-0.5-0.4-0.91-0.9-1.2-1.48c-0.23-0.46-0.38-0.97-0.45-1.49 c-0.08-0.64-0.05-1.29,0.1-1.92c0.11-0.45,0.27-0.88,0.5-1.28c0.24-0.43,0.57-0.8,0.96-1.1c0.29-0.22,0.61-0.39,0.94-0.52 c0.44-0.17,0.9-0.24,1.36-0.22c0.38,0.02,0.75,0.09,1.11,0.19c0.5,0.14,0.97,0.37,1.37,0.7c0.27,0.22,0.52,0.49,0.71,0.79 c0.26,0.4,0.4,0.85,0.44,1.32c0.02,0.27,0,0.55-0.06,0.81c-0.05,0.24-0.14,0.47-0.25,0.68c-0.19,0.37-0.48,0.67-0.83,0.88 c-0.35,0.2-0.76,0.31-1.16,0.31c-0.04,0-0.09,0-0.13,0c-0.44-0.03-0.87-0.2-1.2-0.5c-0.21-0.19-0.38-0.43-0.48-0.7 c-0.05-0.13-0.08-0.26-0.09-0.39c-0.04-0.46,0.1-0.91,0.4-1.24c0.1-0.11,0.22-0.2,0.35-0.27c0.14-0.07,0.28-0.11,0.43-0.12 c0.1-0.01,0.2,0,0.3,0.03c0.1,0.02,0.2,0.06,0.29,0.12c0.17,0.11,0.3,0.28,0.36,0.48c0.06,0.2,0.05,0.41-0.03,0.61l-0.12-0.06 c0.07-0.18,0.07-0.38,0.01-0.55c-0.05-0.18-0.17-0.33-0.32-0.43c-0.15-0.1-0.33-0.14-0.5-0.12c-0.27,0.04-0.51,0.2-0.65,0.44 c-0.13,0.24-0.17,0.51-0.11,0.78c0.07,0.28,0.22,0.54,0.44,0.73c0.29,0.25,0.65,0.39,1.03,0.39c0.03,0,0.06,0,0.09,0 c0.28-0.01,0.56-0.08,0.8-0.2c0.25-0.12,0.46-0.28,0.64-0.49c0.17-0.2,0.3-0.43,0.38-0.68c0.07-0.25,0.1-0.51,0.08-0.77 c-0.04-0.47-0.21-0.9-0.48-1.25c-0.2-0.26-0.44-0.48-0.72-0.66c-0.36-0.23-0.76-0.39-1.18-0.48c-0.6-0.13-1.24-0.13-1.84,0.01 c-0.71,0.16-1.36,0.51-1.88,1.01c-0.61,0.59-1.03,1.36-1.2,2.2c-0.07,0.36-0.1,0.73-0.08,1.1c0.04,0.63,0.2,1.25,0.47,1.81 c0.2,0.41,0.45,0.78,0.76,1.1c0.7,0.73,1.66,1.18,2.67,1.25c0.17,0.01,0.34,0.02,0.51,0.01c0.32-0.01,0.65-0.05,0.97-0.11 c0.78-0.16,1.54-0.5,2.18-1c0.42-0.33,0.78-0.73,1.06-1.19c0.23-0.37,0.4-0.77,0.51-1.2c0.11-0.46,0.15-0.94,0.11-1.41 c-0.05-0.48-0.17-0.95-0.35-1.38c0.07,0.1,0.13,0.21,0.19,0.31c0.16,0.33,0.27,0.69,0.33,1.05c0.08,0.47,0.07,0.95-0.01,1.42 C22.08,19.26,21.89,19.91,21.6,20.51z"/>
</svg>